HIERARCHY
ROOT Hips
{
  OFFSET 130.238 94.6845 276.595
  CHANNELS 6 Xposition Yposition Zposition Zrotation Xrotation Yrotation
  JOINT RightUpLeg
  {
    OFFSET -8.9458 -8.66707 0.101652
    CHANNELS 3 Zrotation Xrotation Yrotation
    JOINT RightLeg
    {
      OFFSET 0 -44.4227 1.3727
      CHANNELS 3 Zrotation Xrotation Yrotation
      JOINT RightFoot
      {
        OFFSET 0.253549 -42.0924 -1.46059
        CHANNELS 3 Zrotation Xrotation Yrotation
        JOINT RightToes
        {
          OFFSET 0.04 -4.41509 8.4991
          CHANNELS 3 Zrotation Xrotation Yrotation
          End Site
          {
            OFFSET -0.08 -0.137448 9.77979
          }
        }
      }
    }
  }
  JOINT Spine
  {
    OFFSET 0 11.8905 0
    CHANNELS 3 Zrotation Xrotation Yrotation
    JOINT Spine1
    {
      OFFSET 0 25.6574 0.127663
      CHANNELS 3 Zrotation Xrotation Yrotation
      JOINT HEad
      {
        OFFSET 0 8.73416 0.011341
        CHANNELS 3 Zrotation Xrotation Yrotation
        End Site
        {
          OFFSET -0.29 12.7742 2.51395
        }
      }
      JOINT LeftShoulder1
      {
        OFFSET 8.99 -0.362252 -0.22
        CHANNELS 3 Zrotation Xrotation Yrotation
        JOINT LeftArm
        {
          OFFSET 10.2827 -0.00338 0.322123
          CHANNELS 3 Zrotation Xrotation Yrotation
          JOINT LeftForeArm
          {
            OFFSET 32.7669 0.099144 -1.42434
            CHANNELS 3 Zrotation Xrotation Yrotation
            JOINT LeftHand
            {
              OFFSET 27.5643 0.085362 1.02216
              CHANNELS 3 Zrotation Xrotation Yrotation
              End Site
              {
                OFFSET 16.7443 -0.6 1.50291
              }
            }
          }
        }
      }
      JOINT RightShoulder
      {
        OFFSET -8.99 -0.362252 -0.22
        CHANNELS 3 Zrotation Xrotation Yrotation
        JOINT RightArm
        {
          OFFSET -10.2827 -0.00338 0.322123
          CHANNELS 3 Zrotation Xrotation Yrotation
          JOINT RightForeArm
          {
            OFFSET -32.8971 0.099144 -1.42434
            CHANNELS 3 Zrotation Xrotation Yrotation
            JOINT RightHand
            {
              OFFSET -27.4921 0.085362 1.02216
              CHANNELS 3 Zrotation Xrotation Yrotation
              End Site
              {
                OFFSET -16.6312 -0.6 1.50291
              }
            }
          }
        }
      }
    }
  }
  JOINT LeftUpLeg
  {
    OFFSET 8.9458 -8.66707 0.101652
    CHANNELS 3 Zrotation Xrotation Yrotation
    JOINT LeftLeg
    {
      OFFSET 0 -44.4227 1.3727
      CHANNELS 3 Zrotation Xrotation Yrotation
      JOINT LeftFoot
      {
        OFFSET -0.253549 -42.0924 -1.46059
        CHANNELS 3 Zrotation Xrotation Yrotation
        JOINT LeftToes
        {
          OFFSET -0.04 -4.41509 8.4991
          CHANNELS 3 Zrotation Xrotation Yrotation
          End Site
          {
            OFFSET 0.08 -0.047448 9.77979
          }
        }
      }
    }
  }
}
MOTION
Frames:	20
Frame Time:	0.0166667
109.712 97.8027 23.0735 -0.156889 -1.3822 173.339 3.78672 -7.9986 -24.3801 -18.1615 27.8334 55.1239 -6.66565 -17.2025 -0.916306 2.91203 -12.8484 -3.20287 1.88063 2.75944 -1.97431 3.03692 2.062 -2.47486 -10.8171 19.274 3.86824 1.39149e-015 0 -1.59028e-015 -52.5676 -57.9837 42.709 -22.2415 17.2323 -27.158 0.368473 9.90896 -0.00117928 8.08716 0.638634 0.585736 78.1783 3.39596 41.6641 1.01234 13.2747 -1.23292 -0.369625 9.91382 0.00119886 7.73398 -29.1587 15.0898 -6.64919 24.0278 22.1529 -12.006 -9.94494 -0.653947 -0.512818 0.102171 1.0606 
109.277 97.6503 21.2129 -0.379264 -1.10238 172.87 3.20721 -6.80438 -25.5693 -19.4677 27.6373 57.4575 -6.56408 -17.8361 -0.946516 2.88174 -13.21 -3.19238 1.7472 2.64286 -1.83177 2.9944 2.32973 -2.37143 -11.3226 19.486 4.09099 1.98785e-015 0 -1.59028e-015 -51.3113 -58.021 44.9662 -22.0827 17.0243 -26.5796 0.368473 9.90896 -0.00117928 7.72586 0.619248 0.54295 78.1047 4.24199 42.7339 1.01234 13.2747 -1.23292 -0.369625 9.91382 0.00119886 7.10058 -28.874 20.0963 -3.2782 19.8517 14.2991 -12.0894 -10.7706 -0.755397 -0.692077 1.34063 1.27573 
108.829 97.4826 19.3458 -0.627755 -0.848763 172.442 2.57301 -5.70144 -26.452 -20.7245 27.5648 59.5216 -6.51361 -18.3176 -0.973793 2.71914 -13.5934 -3.0328 1.49073 2.5534 -1.68444 2.93245 2.5773 -2.28416 -11.7312 19.6173 4.21962 -7.95139e-016 1.59028e-015 -0 -50.1835 -58.1813 46.9961 -21.7927 16.7312 -25.9175 0.368473 9.90896 -0.00117928 7.36178 0.599731 0.502955 78.0473 4.96388 43.604 1.01234 13.2747 -1.23292 -0.369625 9.91382 0.00119886 6.59601 -28.7943 23.5933 -1.55439 16.7493 9.29688 -12.3692 -11.7291 -0.883559 -0.948112 2.73504 1.60005 
108.392 97.1804 17.4327 -0.769307 -0.732125 172.1 2.11268 -4.95778 -27.3411 -22.4013 27.8154 61.7516 -6.55693 -18.6749 -1.00308 2.50524 -14.3029 -2.83888 1.14056 2.51281 -1.54186 3.03931 2.59761 -2.2781 -12.1294 19.6358 4.31943 -5.96354e-016 -1.59028e-015 -1.59028e-015 -48.8292 -58.4216 49.1564 -21.3968 16.4177 -25.3535 0.368473 9.90896 -0.00117928 7.00884 0.599782 0.589987 78.0236 5.4674 44.1498 1.01234 13.2747 -1.23292 -0.369625 9.91382 0.00119886 6.54209 -29.1003 24.4657 -1.75234 15.5093 9.79414 -13.749 -12.1123 -1.02973 -1.20179 2.43734 2.14448 
107.94 96.8363 15.4714 -0.8989 -0.658808 171.86 1.64426 -4.33998 -28.1599 -24.2053 28.206 63.8688 -6.60704 -18.9494 -1.02655 2.19842 -14.9374 -2.53061 0.79426 2.49565 -1.43452 3.12657 2.54578 -2.30787 -12.4047 19.5848 4.3604 -9.93923e-016 0 3.18055e-015 -47.4367 -58.7146 51.2317 -20.9291 16.0871 -24.8375 0.368473 9.90896 -0.00117928 6.67125 0.609543 0.742998 78.0452 5.80837 44.4151 1.01234 13.2747 -1.23292 -0.369625 9.91382 0.00119886 6.50799 -29.6358 23.4824 -2.39791 15.7849 12.5292 -14.9532 -12.0257 -1.10426 -1.36198 1.49005 2.61842 
107.459 96.5023 13.4541 -1.04758 -0.592279 171.793 1.09691 -3.73238 -28.9871 -25.9746 28.6756 65.7353 -6.58715 -19.217 -1.0391 1.70163 -15.2022 -1.98539 0.591081 2.48385 -1.41337 3.06302 2.49864 -2.35435 -12.4261 19.4912 4.31413 5.96354e-016 0 3.18055e-015 -46.1012 -59.0548 53.0722 -20.3992 15.7493 -24.373 0.368473 9.90896 -0.00117928 6.41683 0.628826 0.944933 78.0967 5.95396 44.4195 1.01234 13.2747 -1.23292 -0.369625 9.91382 0.00119886 6.16702 -30.2487 20.7627 -2.82947 17.4923 15.3565 -14.6351 -11.0659 -0.951441 -1.31137 0.212888 2.71282 
106.946 96.1817 11.3587 -1.26758 -0.472696 171.769 0.415927 -3.0723 -29.681 -27.6905 29.2495 67.349 -6.50944 -19.4014 -1.03772 1.23704 -15.0799 -1.44965 0.436132 2.47694 -1.42669 2.86354 2.48404 -2.40383 -12.3395 19.3722 4.24229 -2.20695e-032 7.95139e-016 1.59028e-015 -44.817 -59.3778 54.781 -19.9124 15.4524 -23.9778 0.368473 9.90896 -0.00117928 6.06837 0.648306 1.18805 78.2427 6.04341 44.1233 1.01234 13.2747 -1.23292 -0.369625 9.91382 0.00119886 5.46621 -30.5808 17.0163 -3.58287 19.6555 18.5632 -13.928 -10.0515 -0.764886 -1.16167 -1.07639 2.60108 
106.38 95.8434 9.10893 -1.60289 -0.195015 171.704 -0.514595 -2.16309 -30.2182 -29.2734 29.9693 68.7576 -6.43467 -19.5929 -1.03224 1.09629 -14.3586 -1.24848 0.395464 2.45474 -1.43941 2.47697 2.57064 -2.42488 -12.1967 19.2254 4.14336 1.39149e-015 7.95139e-016 1.59028e-015 -43.6542 -59.6452 56.3078 -19.5604 15.2359 -23.6405 0.368473 9.90896 -0.00117928 5.51452 0.65572 1.39487 78.5413 6.19103 43.4846 1.01234 13.2747 -1.23292 -0.369625 9.91382 0.00119886 4.33584 -30.0299 13.0014 -4.79037 21.2305 21.4113 -13.6703 -10.1891 -0.759226 -0.92689 -2.0798 2.26311 
105.807 95.6426 6.8595 -2.10409 0.141008 171.531 -1.58812 -1.28821 -30.3352 -30.719 30.772 69.6613 -6.14068 -19.3676 -0.979144 0.959471 -13.3344 -1.02863 0.125784 2.45832 -1.45256 1.97098 2.71276 -2.4516 -12.1476 19.1372 4.17801 1.98785e-016 -7.95139e-016 -0 -42.5468 -59.7576 57.8868 -19.4005 15.1381 -23.4482 0.368473 9.90896 -0.00117928 4.62618 0.659699 1.75758 78.9918 6.42803 42.5375 1.01234 13.2747 -1.23292 -0.369625 9.91382 0.00119886 3.04462 -29.2803 9.01467 -6.00596 22.6451 24.4705 -13.3508 -9.9122 -0.703924 -0.764664 -2.41777 1.96202 
105.275 95.8095 4.79559 -2.94934 0.468611 171.091 -2.8441 -0.610801 -29.7855 -31.8741 31.3423 69.7136 -5.40124 -18.2403 -0.820816 0.638192 -12.5325 -0.658254 -0.844942 2.50784 -1.46438 1.32589 2.929 -2.51658 -12.5095 19.266 4.63944 -0 0 3.18055e-015 -41.4097 -59.5237 59.9024 -19.5791 15.2397 -23.5047 0.368473 9.90896 -0.00117928 2.88157 0.669189 2.68124 79.6971 6.96556 41.2274 1.01234 13.2747 -1.23292 -0.369625 9.91382 0.00119886 1.47545 -29.0892 5.81753 -6.67603 23.8416 28.081 -12.6575 -7.38625 -0.35487 -0.995455 -1.24028 2.29743 
104.762 96.0872 2.74934 -3.7913 0.792455 170.581 -4.03454 -0.249306 -28.4644 -32.9851 32.5191 68.923 -4.31148 -16.4838 -0.617664 -0.00990927 -11.0469 0.194811 -2.06437 2.64575 -1.44825 0.753359 3.09519 -2.59304 -12.8337 19.3902 5.12943 9.93923e-016 0 -1.59028e-015 -40.4747 -59.1184 61.7279 -19.9173 15.4504 -23.7515 0.368473 9.90896 -0.00117928 1.34666 0.67064 3.4498 80.4361 7.39937 39.7821 1.01234 13.2747 -1.23292 -0.369625 9.91382 0.00119886 -0.135088 -29.0206 2.35365 -7.51204 25.0021 32.2662 -11.9164 -4.6206 0.01705 -1.09677 0.340823 2.24463 
104.267 96.2686 0.589757 -4.27323 1.10403 170.138 -4.7666 -0.414904 -26.0558 -34.2508 35.1758 67.0572 -2.9087 -14.3564 -0.38702 -1.37753 -7.79228 1.90502 -3.28407 2.97621 -1.32634 0.570905 3.08644 -2.64729 -12.7021 19.3068 5.2665 1.98785e-016 0 -1.59028e-015 -39.943 -58.6604 62.9017 -20.316 15.7369 -24.2461 0.368473 9.90896 -0.00117928 1.2108 0.642982 3.2225 80.9121 7.25264 38.4651 1.01234 13.2747 -1.23292 -0.369625 9.91382 0.00119886 -1.47351 -28.8086 -2.95087 -9.32026 26.3714 37.8831 -11.3286 -3.06967 0.219317 -0.278306 1.53978 0.353676 
103.773 96.4342 -1.6085 -4.61817 1.37868 169.78 -5.3212 -1.09505 -22.9504 -35.3355 38.7746 64.339 -1.13456 -11.417 -0.196053 -3.47129 -3.82194 4.40342 -4.3672 3.33427 -1.25046 0.437949 2.92377 -2.73239 -12.3173 19.1297 5.286 1.98785e-016 7.95139e-016 -3.18055e-015 -39.6055 -58.2538 63.5671 -20.6712 16.0014 -24.7475 0.368473 9.90896 -0.00117928 1.58321 0.618866 2.77853 81.2929 6.83485 37.1112 1.01234 13.2747 -1.23292 -0.369625 9.91382 0.00119886 -2.48835 -28.2668 -7.59039 -11.6041 27.3166 42.8999 -10.7287 -2.56706 0.296447 0.614827 2.23427 -1.50821 
103.251 96.5955 -3.81767 -4.91111 1.58081 169.586 -5.77401 -2.41844 -19.4049 -35.8749 43.1647 60.5814 1.5368 -6.83399 -0.130244 -7.0813 0.0429372 8.73908 -5.01931 3.55681 -1.37617 0.0987941 2.53349 -2.91303 -11.6956 18.9122 5.30858 1.98785e-016 7.95139e-016 -1.59028e-015 -39.2498 -57.9673 63.769 -20.8672 16.1441 -25.0077 0.368473 9.90896 -0.00117928 1.91325 0.635226 2.75255 81.6849 6.31117 35.5998 1.01234 13.2747 -1.23292 -0.369625 9.91382 0.00119886 -2.95166 -27.4015 -9.28896 -13.8449 27.9156 45.2281 -9.96662 -3.74105 0.189247 0.599628 1.67302 -1.42093 
102.728 96.7514 -6.02798 -5.21629 1.73626 169.513 -6.12744 -4.21382 -15.526 -35.8367 48.0439 56.5191 3.72711 -2.03845 -0.137474 -10.2066 4.06729 12.0964 -5.45144 3.74223 -1.61492 -0.388528 2.07499 -3.12094 -10.9834 18.6304 5.2988 5.96354e-016 0 -0 -39.048 -57.9814 63.3672 -20.8712 16.1588 -25.095 0.368473 9.90896 -0.00117928 2.37315 0.6583 2.73723 82.0332 5.68505 34.0606 1.01234 13.2747 -1.23292 -0.369625 9.91382 0.00119886 -3.23 -26.3456 -9.04004 -15.4934 28.5086 45.54 -9.26248 -5.66117 0.00770802 0.41826 0.967212 -0.979451 
102.223 96.8787 -8.22988 -5.67664 1.85726 169.563 -6.53779 -6.33236 -11.3271 -35.5749 53.4085 53.9404 3.73983 2.1368 -0.22367 -9.47285 9.03015 11.1916 -5.81101 3.96486 -1.94446 -1.10037 1.69389 -3.30534 -10.3225 18.2728 5.24896 3.97569e-016 0 -0 -39.1502 -58.5722 62.1099 -20.5553 15.9696 -24.9665 0.368473 9.90896 -0.00117928 2.99065 0.660511 2.45982 82.3398 5.07493 32.6194 1.01234 13.2747 -1.23292 -0.369625 9.91382 0.00119886 -3.67384 -25.0731 -6.42187 -15.7475 29.2986 43.1655 -8.80244 -7.69057 -0.159084 0.603203 1.25904 -1.39469 
101.726 97.0555 -10.3949 -6.13598 1.94795 169.69 -6.78779 -8.68188 -7.28925 -35.1831 58.8471 51.3517 3.05089 4.72868 -0.305704 -6.57674 13.1514 8.33544 -5.99734 4.13361 -2.32136 -1.87796 1.35732 -3.47832 -9.7438 17.8549 5.19696 -1.98785e-016 0 -0 -39.6235 -59.4497 60.1425 -20.0757 15.6784 -24.7142 0.368473 9.90896 -0.00117928 3.64831 0.660139 2.15127 82.5885 4.34344 31.1556 1.01234 13.2747 -1.23292 -0.369625 9.91382 0.00119886 -4.38727 -23.5145 -3.5015 -15.3022 29.7023 40.0258 -8.51721 -9.57642 -0.308413 0.829343 1.70297 -1.89758 
101.228 97.3902 -12.4882 -6.47566 2.02762 169.9 -6.88809 -11.0884 -4.08476 -34.1867 63.6529 46.3989 2.68072 3.61338 -0.271467 -2.90337 14.4615 4.40378 -5.88395 4.15219 -2.7162 -2.623 1.08447 -3.64318 -9.31139 17.3618 5.17336 1.98785e-016 0 -0 -40.5838 -60.472 57.4864 -19.4576 15.3133 -24.3707 0.368473 9.90896 -0.00117928 4.19958 0.673807 2.02806 82.7552 3.357 29.5463 1.01234 13.2747 -1.23292 -0.369625 9.91382 0.00119886 -5.33992 -21.6791 -2.39015 -14.7039 29.1981 38.1406 -8.35859 -10.6986 -0.389237 0.906017 1.70038 -2.0536 
100.742 97.7693 -14.5196 -6.72328 2.0624 170.052 -6.82028 -13.6133 -1.16742 -31.516 67.7595 39.4107 2.21641 1.44062 -0.210119 0.743011 13.6125 0.427452 -5.70675 4.11136 -3.06381 -3.22931 0.864658 -3.77536 -9.06261 16.8735 5.19095 3.97569e-016 7.95139e-016 -3.18055e-015 -42.0728 -61.4205 54.2117 -18.9664 15.0185 -24.0695 0.368473 9.90896 -0.00117928 4.75989 0.679036 1.8609 82.7966 2.17938 27.9439 1.01234 13.2747 -1.23292 -0.369625 9.91382 0.00119886 -6.38504 -19.787 -2.15754 -14.0079 28.2618 36.9894 -8.41203 -11.5224 -0.450792 0.914805 1.65457 -2.06859 
100.274 98.1126 -16.4738 -6.88149 2.01325 169.959 -6.5176 -16.3381 1.90513 -26.6718 71.0847 30.4953 1.47253 0.481786 -0.179545 2.95491 9.87945 -2.02374 -5.67502 4.08452 -3.27594 -3.54366 0.710818 -3.84092 -9.12071 16.4575 5.28463 -1.98785e-016 7.95139e-016 -0 -44.0516 -61.9574 50.5114 -19.0308 15.0222 -23.9421 0.368473 9.90896 -0.00117928 5.40209 0.650506 1.42086 82.6927 0.888095 26.4935 1.01234 13.2747 -1.23292 -0.369625 9.91382 0.00119886 -7.41016 -18.0554 -2.81799 -13.4698 27.1587 36.9602 -8.76686 -12.3099 -0.525377 0.882013 1.77879 -2.0131 
